<?xml version="1.0" encoding="utf-8"?>
<!-- Generator: Adobe Illustrator 24.3.0, SVG Export Plug-In . SVG Version: 6.00 Build 0)  -->
<svg version="1.1" id="Camada_1" xmlns="http://www.w3.org/2000/svg" xmlns:xlink="http://www.w3.org/1999/xlink" x="0px" y="0px"
	 viewBox="0 0 3687.84 826.65" style="enable-background:new 0 0 3687.84 826.65;" xml:space="preserve">
<style type="text/css">
	.st0{fill:#0C202C;}
	.st1{fill:#1ECAD3;}
	.st2{font-family:'FuturaBT-Medium';}
	.st3{font-size:594.493px;}
</style>
<g>
	<path class="st0" d="M1128.51,411.49l-39.9,32.35l121.19,0.15c-7.51-26.18-20.9-49.34-38.31-67.35
		c-16.18-16.73-35.83-29.01-57.42-35.14l-0.44,60.61C1118.88,404.64,1123.87,407.77,1128.51,411.49z"/>
	<path class="st0" d="M1082.64,589.91c-43.54,0-79.16-40.62-81.72-91.65c-4.68,8.77-9.44,18.47-14.22,29.33l-0.43,0.97
		c-6.43,14.78-13.25,27.99-20.34,39.94c23.01,47.25,66.67,79.25,116.71,79.25c58.8,0,109.21-43.45,127.03-106.21h-56.3
		C1139.05,570.96,1112.56,589.91,1082.64,589.91z"/>
	<path class="st0" d="M920.61,424.73c-7.82-19.72-19.06-37.3-32.89-51.6c-23.74-24.56-54.94-39.55-88.83-39.55
		c-66.34,0-121.56,56.26-132.1,129.79h53.1c9.47-41.38,41.26-71.94,79-71.94c17.04,0,32.81,6.08,45.87,16.55l-39.89,32.34
		l107.1,0.13l14.09,0.01C924.5,435.07,922.65,429.85,920.61,424.73z"/>
	<path class="st1" d="M1064.03,338.69c-17.9,1.49-34.78,8.7-50.03,18.67c-2.23,1.28-54.72,32.67-93.64,126.4l-1.34,3.05
		c-38.53,90.75-92.3,103.66-106.46,105.44c-3.51,0.44-6.61,0.65-9.51,0.65l-1.41-0.03c-43.91-1.05-79.42-42.82-80.85-95.06
		l-0.23-8.56h-53.78l0.17,8.96c1.69,87.2,60.77,147.44,134.49,149.39c14.37,0.38,102.89,4.47,161.21-129.68l0.34-0.77
		c23.47-53.46,47.45-82.77,63.6-98.1c2.6-2.6,5.5-5.11,8.62-7.48c9.59-7.31,20.22-12.08,31.57-14.16l21-3.75l0.41-55.9
		C1088.19,337.78,1069.43,338.24,1064.03,338.69z"/>
</g>
<text transform="matrix(1 0 0 1 1223.226 630.1458)" class="st0 st2 st3">diaonn</text>
<g>
	<text transform="matrix(1 0 0 1 133.9193 630.1458)" class="st0 st2 st3">m</text>
</g>
<path class="st0" d="M3387.25,432.34c-7.82-19.72-19.06-37.3-32.89-51.6c-23.74-24.56-54.94-39.55-88.83-39.55
	c-66.34,0-121.56,56.26-132.1,129.79h53.1c9.47-41.38,41.26-71.94,79-71.94c17.04,0,32.81,6.08,45.87,16.55l-39.89,32.34l107.1,0.13
	l14.09,0.01C3391.15,442.68,3389.29,437.46,3387.25,432.34z"/>
<path class="st1" d="M3385.79,491.38l-1.34,3.05c-38.53,90.75-91.09,103.66-105.25,105.44c-3.51,0.44-6.61,0.65-9.51,0.65
	l-1.41-0.03c-43.91-1.05-79.42-42.82-80.85-95.06l-0.23-8.56h-53.78l0.17,8.96c1.69,87.2,60.77,147.44,134.49,149.39
	c14.37,0.38,102.89,4.47,161.21-129.68l0.34-0.77"/>
<path class="st0" d="M3464.61,499.64l5.65,51.06l65.64-101.87c-26.08-7.83-52.81-9.09-77.37-4.17
	c-22.82,4.57-41.5,15.29-58.33,30.14l46.2,31.48C3451.38,503.21,3458.98,501.53,3464.61,499.64z"/>
</svg>
